<svg aria-hidden="true" style="width:0;height:0;position:absolute;overflow:hidden" xmlns="http://www.w3.org/2000/svg"><defs><symbol id="icon-contacts_phone" viewBox="0 0 32 32"><path fill="#c79002" style="fill:var(--color1,#c79002)" d="M21 2.667a3 3 0 0 1 3 3v20.667a3 3 0 0 1-3 3H11a3 3 0 0 1-3-3V5.667a3 3 0 0 1 3-3h10zm0 2H11a1 1 0 0 0-1 1v20.667a1 1 0 0 0 1 1h10a1 1 0 0 0 1-1V5.667a1 1 0 0 0-1-1zm-3.335 18.666h.001a1 1 0 0 1 .001 2l-3.333.005h-.001a1 1 0 0 1-.001-2l3.333-.005z"/></symbol><symbol id="icon-contacts_location" viewBox="0 0 32 32"><path fill="#c79002" style="fill:var(--color1,#c79002)" d="M16 3.213h-.013A7.987 7.987 0 0 0 8 11.2c0 7.639 8 17.6 8 17.6s8-9.964 8-17.6a7.987 7.987 0 0 0-7.987-7.984h-.014H16zm0 12.403a4.32 4.32 0 1 1 0-8.64 4.32 4.32 0 1 1 0 8.64z"/></symbol></defs></svg>